<svg id="Layer_1" data-name="Layer 1" xmlns="http://www.w3.org/2000/svg" viewBox="0 0 463.65 500.25"><defs><style>.cls-1{fill:#5c499e;}.cls-1,.cls-2{stroke:#231f20;stroke-miterlimit:10;stroke-width:0.25px;}.cls-2{fill:#312564;}</style></defs><path class="cls-1" d="M483.23,619.94A150,150,0,1,1,632.39,414.16l74.23-74.23A249.86,249.86,0,0,0,493.26,220.28c-138.08,0-250,111.93-250,250,0,135.33,107.54,245.53,241.82,249.85Z" transform="translate(-243.13 -220.15)"/><path class="cls-2" d="M485.2,720.13c2.68.09,5.36.15,8.06.15A249.59,249.59,0,0,0,692.63,621.1l-70.36-70.36L485.2,720.13" transform="translate(-243.13 -220.15)"/><circle class="cls-2" cx="248.34" cy="243.83" r="20.52"/><circle class="cls-2" cx="196.34" cy="243.83" r="20.52"/><circle class="cls-2" cx="302.34" cy="243.83" r="20.52"/></svg>